<?xml version="1.0" standalone="no"?>
<!DOCTYPE svg PUBLIC "-//W3C//DTD SVG 20010904//EN"
 "http://www.w3.org/TR/2001/REC-SVG-20010904/DTD/svg10.dtd">
<svg version="1.0" xmlns="http://www.w3.org/2000/svg"
 width="4961.000000pt" height="3508.000000pt" viewBox="0 0 4961.000000 3508.000000"
 preserveAspectRatio="xMidYMid meet">
<metadata>
Created by potrace 1.14, written by Peter Selinger 2001-2017
</metadata>
<g transform="translate(0.000000,3508.000000) scale(0.100000,-0.100000)"
fill="#000000" stroke="none">
<path d="M23035 23913 c-22 -2 -95 -13 -163 -24 -963 -159 -1615 -851 -1728
-1832 -13 -115 -14 -474 -11 -2822 2 -2509 4 -2697 20 -2790 43 -246 102 -435
198 -635 391 -814 1273 -1243 2289 -1114 818 104 1398 608 1595 1385 70 275
68 242 72 1137 l4 812 -630 0 -630 0 -4 -747 c-3 -838 0 -801 -78 -961 -48
-100 -139 -201 -230 -255 -230 -136 -618 -136 -848 0 -135 81 -248 241 -288
410 -17 75 -18 200 -18 2828 0 2610 1 2754 18 2820 62 242 222 407 462 477 70
20 102 23 250 23 196 0 251 -11 384 -76 185 -91 308 -272 341 -504 5 -41 10
-358 10 -767 l0 -698 630 0 630 0 0 743 c0 790 -4 878 -51 1093 -89 414 -256
723 -531 990 -286 277 -665 445 -1124 499 -117 14 -454 18 -569 8z"/>
<path d="M7530 19295 l0 -4465 710 0 710 0 0 1765 0 1765 508 0 c562 0 673 7
889 60 689 167 1098 658 1188 1426 22 190 22 2227 0 2417 -51 436 -190 763
-432 1018 -119 124 -233 207 -398 289 -156 78 -304 126 -495 161 l-125 24
-1277 3 -1278 3 0 -4466z m2291 3231 c173 -37 281 -152 327 -348 15 -66 17
-171 17 -1158 0 -980 -2 -1092 -17 -1157 -47 -203 -167 -324 -348 -353 -36 -5
-240 -10 -457 -10 l-393 0 0 1520 0 1520 403 0 c307 0 418 -4 468 -14z"/>
<path d="M12312 19298 l3 -4463 1783 -3 1782 -2 0 655 0 655 -1070 0 -1070 0
0 1355 0 1355 740 0 740 0 0 595 0 595 -740 0 -740 0 0 1230 0 1230 1070 0
1070 0 0 630 0 630 -1785 0 -1785 0 2 -4462z"/>
<path d="M16942 19303 c-408 -2452 -742 -4461 -742 -4465 0 -5 292 -8 650 -8
l649 0 6 33 c3 17 62 399 130 847 69 448 128 827 131 843 l6 27 646 -2 647 -3
112 -860 c62 -473 115 -866 118 -872 3 -10 158 -13 725 -13 569 0 720 3 720
13 0 6 -333 2016 -741 4465 l-742 4452 -786 0 -786 0 -743 -4457z m1743 276
c118 -977 215 -1784 215 -1793 0 -15 -41 -16 -475 -16 l-475 0 0 24 c0 17 501
3533 511 3585 3 16 23 -145 224 -1800z"/>
<path d="M26112 19298 l3 -4463 710 0 710 0 3 1878 2 1877 745 0 745 0 2
-1877 3 -1878 710 0 710 0 3 4463 2 4462 -715 0 -715 0 0 -1935 0 -1935 -745
0 -745 0 0 1935 0 1935 -715 0 -715 0 2 -4462z"/>
<path d="M31106 23738 c4 -13 326 -1017 716 -2231 l710 -2209 -761 -2222
c-419 -1222 -761 -2228 -761 -2234 0 -9 167 -12 685 -12 l685 0 10 23 c6 12
215 702 465 1532 250 831 459 1518 463 1529 5 13 141 -458 436 -1510 235 -840
432 -1538 437 -1551 l9 -23 725 0 c629 0 725 2 725 15 0 8 -329 1046 -732
2307 -402 1261 -731 2300 -730 2308 0 14 1424 4178 1457 4263 l15 37 -687 -2
-687 -3 -452 -1573 c-248 -865 -453 -1574 -455 -1576 -2 -3 -184 706 -404
1575 l-399 1579 -739 0 -738 0 7 -22z"/>
<path d="M40215 23754 c-16 -2 -84 -9 -150 -15 -290 -27 -659 -106 -965 -208
-665 -223 -1250 -589 -1752 -1097 -228 -231 -405 -450 -570 -704 -1014 -1559
-948 -3612 165 -5095 250 -333 603 -684 927 -922 1083 -796 2444 -1064 3745
-737 1027 258 1933 882 2555 1759 646 911 923 2056 769 3180 -155 1131 -745
2164 -1647 2883 -643 512 -1410 830 -2262 938 -118 15 -736 29 -815 18z m380
-1338 c177 -90 299 -174 414 -288 175 -174 283 -370 310 -566 5 -41 12 -76 14
-78 2 -2 49 14 105 36 151 61 242 82 352 84 102 1 144 -13 174 -56 31 -43 11
-244 -30 -305 -14 -22 -21 -23 -127 -23 -132 0 -185 -13 -302 -73 -92 -48
-208 -152 -275 -248 l-43 -62 39 6 c226 34 656 33 789 -3 298 -81 565 -310
792 -681 159 -262 260 -554 294 -849 14 -128 7 -423 -14 -535 -69 -369 -238
-719 -496 -1026 -484 -579 -1356 -937 -2353 -966 -262 -8 -286 -3 -483 97
-617 314 -1053 672 -1370 1125 -213 305 -341 621 -390 966 -17 122 -20 435 -5
559 39 313 136 601 286 849 196 321 512 600 919 806 239 122 392 161 604 153
l121 -4 -7 65 c-38 321 71 657 320 995 59 80 109 109 172 102 22 -3 106 -38
190 -80z"/>
<path d="M40424 21995 c-49 -89 -97 -205 -120 -290 -24 -93 -25 -250 -2 -325
36 -114 134 -242 264 -342 62 -48 189 -128 202 -128 16 0 92 157 126 261 20
58 41 140 48 182 29 192 -52 381 -233 537 -73 63 -161 125 -216 154 l-32 16
-37 -65z"/>
<path d="M39623 20945 c-142 -38 -372 -140 -500 -222 -176 -111 -367 -296
-476 -460 -204 -306 -325 -744 -302 -1093 31 -473 235 -889 635 -1291 263
-265 564 -476 940 -658 l115 -56 115 -3 c300 -9 709 50 1034 150 661 202 1107
552 1366 1068 70 139 115 257 148 388 25 99 27 122 26 312 0 233 -14 320 -85
535 -122 369 -369 695 -614 811 -118 57 -207 74 -376 74 -175 0 -323 -19 -503
-64 -254 -64 -372 -131 -536 -303 -274 -286 -435 -707 -502 -1308 -15 -142
-16 -860 -1 -1000 6 -49 9 -91 8 -92 -4 -6 -77 189 -123 327 -219 654 -212
1173 25 1775 131 332 286 568 472 717 l44 36 -116 86 c-287 214 -454 287 -651
285 -50 0 -114 -7 -143 -14z"/>
</g>
</svg>
